<?xml version="1.0" encoding="UTF-8" standalone="no"?>
<!DOCTYPE svg PUBLIC "-//W3C//DTD SVG 1.1//EN" "http://www.w3.org/Graphics/SVG/1.1/DTD/svg11.dtd">
<svg xmlns="http://www.w3.org/2000/svg" version="1.1" viewBox="0 0 277 302">
<g stroke-width="2.00" fill="none" stroke-linecap="butt">
<path stroke="#a4cfd3" vector-effect="non-scaling-stroke" d="
  M 192.41 254.87
  A 1.85 1.85 0.0 0 1 194.28 252.98
  Q 211.77 253.19 228.68 252.66
  C 234.13 252.49 235.89 249.84 236.14 244.52
  C 236.30 240.96 236.52 237.38 236.51 233.82
  Q 236.42 185.32 236.63 136.82
  C 236.73 113.72 237.04 90.27 236.14 67.21
  C 235.93 61.92 233.16 60.25 228.05 60.14
  C 216.75 59.92 205.42 59.69 194.12 59.69
  Q 193.51 59.69 193.36 59.10
  Q 192.91 57.34 192.93 55.49
  Q 193.13 40.00 192.85 24.47
  Q 192.78 20.47 191.61 18.75
  C 189.37 15.43 182.76 15.30 178.75 15.29
  Q 142.24 15.16 115.55 15.55
  C 102.51 15.74 104.70 23.38 104.65 34.53
  Q 104.59 46.59 104.43 59.00
  Q 104.43 59.55 103.87 59.56
  Q 90.22 59.81 76.58 59.85
  C 64.04 59.89 60.76 60.73 60.75 74.60
  Q 60.73 155.51 60.78 236.41
  C 60.78 239.87 61.08 243.46 61.29 246.97
  Q 61.32 247.45 61.62 247.81
  Q 62.77 249.19 63.30 250.95
  A 2.53 2.51 81.8 0 0 65.68 252.74
  L 103.14 253.14
  Q 104.03 253.15 104.02 254.04
  Q 103.93 268.82 104.08 283.06
  C 104.15 290.34 109.71 291.47 115.75 291.48
  Q 147.83 291.54 179.92 291.47
  C 185.85 291.46 192.44 290.51 192.52 283.25
  Q 192.67 268.39 192.41 254.87"
/>
<path stroke="#a4cfd3" vector-effect="non-scaling-stroke" d="
  M 176.4627 32.9883
  A 0.69 0.69 0.0 0 0 175.7739 32.2971
  L 121.8140 32.2029
  A 0.69 0.69 0.0 0 0 121.1228 32.8917
  L 121.0773 58.9317
  A 0.69 0.69 0.0 0 0 121.7661 59.6229
  L 175.7260 59.7171
  A 0.69 0.69 0.0 0 0 176.4172 59.0283
  L 176.4627 32.9883"
/>
<path stroke="#a4cfd3" vector-effect="non-scaling-stroke" d="
  M 104.46 76.29
  L 79.34 76.25
  Q 78.24 76.25 78.21 77.35
  L 77.75 96.29
  A 1.29 1.29 0.0 0 0 79.84 97.33
  L 104.81 77.28
  A 0.56 0.56 0.0 0 0 104.46 76.29"
/>
<path stroke="#a4cfd3" vector-effect="non-scaling-stroke" d="
  M 167.04 76.61
  Q 151.46 75.89 136.73 76.33
  C 134.25 76.40 131.73 77.04 129.95 78.44
  Q 116.77 88.80 80.12 118.68
  C 79.28 119.36 77.97 121.17 77.98 122.01
  Q 78.12 129.87 77.76 137.83
  Q 77.73 138.55 78.39 138.27
  Q 79.91 137.63 81.95 136.21
  Q 118.04 111.03 154.14 85.87
  Q 160.84 81.20 167.26 77.53
  Q 168.73 76.69 167.04 76.61"
/>
<path stroke="#a4cfd3" vector-effect="non-scaling-stroke" d="
  M 220.14 76.50
  C 212.50 76.59 200.07 74.26 193.54 78.81
  Q 139.83 116.27 86.09 153.70
  C 83.55 155.47 80.75 156.93 78.60 159.54
  Q 78.26 159.95 78.24 160.49
  L 77.71 173.81
  Q 77.68 174.57 78.43 174.45
  Q 80.27 174.15 82.26 172.77
  Q 145.88 128.68 209.34 84.35
  Q 214.61 80.67 220.33 77.17
  A 0.36 0.36 0.0 0 0 220.14 76.50"
/>
<path stroke="#a4cfd3" vector-effect="non-scaling-stroke" d="
  M 79.66 195.14
  C 77.03 196.99 77.99 210.59 78.02 213.96
  A 0.46 0.46 0.0 0 0 78.74 214.34
  C 124.58 183.23 169.79 151.14 215.31 119.56
  Q 217.50 118.04 219.90 116.76
  A 1.34 1.33 75.8 0 0 220.61 115.56
  L 220.45 98.45
  A 0.42 0.41 -14.8 0 0 219.83 98.09
  Q 217.02 99.71 214.30 101.59
  Q 146.85 148.18 79.66 195.14"
/>
<path stroke="#a4cfd3" vector-effect="non-scaling-stroke" d="
  M 78.73 235.57
  C 86.53 236.37 98.40 237.90 105.04 233.28
  Q 160.30 194.82 215.45 156.20
  Q 217.67 154.65 219.76 153.55
  A 1.97 1.97 0.0 0 0 220.81 151.76
  L 220.44 138.20
  Q 220.42 137.38 219.65 137.68
  Q 217.10 138.71 213.76 141.02
  Q 148.48 186.33 83.39 231.91
  C 81.96 232.92 80.08 233.91 78.57 234.98
  Q 77.86 235.49 78.73 235.57"
/>
<path stroke="#a4cfd3" vector-effect="non-scaling-stroke" d="
  M 131.50 235.67
  Q 146.58 236.48 161.52 236.10
  C 163.12 236.06 166.34 235.57 167.28 234.79
  Q 193.50 213.08 220.31 192.08
  Q 220.66 191.80 220.66 191.35
  L 220.43 174.50
  A 0.36 0.36 0.0 0 0 219.88 174.19
  Q 211.30 179.40 203.14 185.12
  Q 169.11 209.00 135.02 232.78
  Q 132.98 234.21 131.37 234.93
  Q 129.91 235.59 131.50 235.67"
/>
<path stroke="#a4cfd3" vector-effect="non-scaling-stroke" d="
  M 193.53 235.97
  L 219.99 236.01
  Q 220.50 236.01 220.50 235.51
  L 220.50 214.48
  Q 220.50 213.86 219.92 214.11
  Q 218.14 214.87 216.63 216.12
  Q 204.87 225.80 193.22 235.09
  A 0.49 0.49 0.0 0 0 193.53 235.97"
/>
<path stroke="#a4cfd3" vector-effect="non-scaling-stroke" d="
  M 175.9647 254.0864
  A 0.96 0.96 0.0 0 0 175.0080 253.1231
  L 121.7284 252.9371
  A 0.96 0.96 0.0 0 0 120.7650 253.8937
  L 120.6953 273.8536
  A 0.96 0.96 0.0 0 0 121.6520 274.8169
  L 174.9316 275.0029
  A 0.96 0.96 0.0 0 0 175.8950 274.0463
  L 175.9647 254.0864"
/>
</g>
<path fill="#ffffff" d="
  M 0.00 0.00
  L 277.00 0.00
  L 277.00 302.00
  L 0.00 302.00
  L 0.00 0.00
  Z
  M 192.41 254.87
  A 1.85 1.85 0.0 0 1 194.28 252.98
  Q 211.77 253.19 228.68 252.66
  C 234.13 252.49 235.89 249.84 236.14 244.52
  C 236.30 240.96 236.52 237.38 236.51 233.82
  Q 236.42 185.32 236.63 136.82
  C 236.73 113.72 237.04 90.27 236.14 67.21
  C 235.93 61.92 233.16 60.25 228.05 60.14
  C 216.75 59.92 205.42 59.69 194.12 59.69
  Q 193.51 59.69 193.36 59.10
  Q 192.91 57.34 192.93 55.49
  Q 193.13 40.00 192.85 24.47
  Q 192.78 20.47 191.61 18.75
  C 189.37 15.43 182.76 15.30 178.75 15.29
  Q 142.24 15.16 115.55 15.55
  C 102.51 15.74 104.70 23.38 104.65 34.53
  Q 104.59 46.59 104.43 59.00
  Q 104.43 59.55 103.87 59.56
  Q 90.22 59.81 76.58 59.85
  C 64.04 59.89 60.76 60.73 60.75 74.60
  Q 60.73 155.51 60.78 236.41
  C 60.78 239.87 61.08 243.46 61.29 246.97
  Q 61.32 247.45 61.62 247.81
  Q 62.77 249.19 63.30 250.95
  A 2.53 2.51 81.8 0 0 65.68 252.74
  L 103.14 253.14
  Q 104.03 253.15 104.02 254.04
  Q 103.93 268.82 104.08 283.06
  C 104.15 290.34 109.71 291.47 115.75 291.48
  Q 147.83 291.54 179.92 291.47
  C 185.85 291.46 192.44 290.51 192.52 283.25
  Q 192.67 268.39 192.41 254.87
  Z"
/>
<path fill="#499fa7" d="
  M 192.41 254.87
  Q 192.67 268.39 192.52 283.25
  C 192.44 290.51 185.85 291.46 179.92 291.47
  Q 147.83 291.54 115.75 291.48
  C 109.71 291.47 104.15 290.34 104.08 283.06
  Q 103.93 268.82 104.02 254.04
  Q 104.03 253.15 103.14 253.14
  L 65.68 252.74
  A 2.53 2.51 81.8 0 1 63.30 250.95
  Q 62.77 249.19 61.62 247.81
  Q 61.32 247.45 61.29 246.97
  C 61.08 243.46 60.78 239.87 60.78 236.41
  Q 60.73 155.51 60.75 74.60
  C 60.76 60.73 64.04 59.89 76.58 59.85
  Q 90.22 59.81 103.87 59.56
  Q 104.43 59.55 104.43 59.00
  Q 104.59 46.59 104.65 34.53
  C 104.70 23.38 102.51 15.74 115.55 15.55
  Q 142.24 15.16 178.75 15.29
  C 182.76 15.30 189.37 15.43 191.61 18.75
  Q 192.78 20.47 192.85 24.47
  Q 193.13 40.00 192.93 55.49
  Q 192.91 57.34 193.36 59.10
  Q 193.51 59.69 194.12 59.69
  C 205.42 59.69 216.75 59.92 228.05 60.14
  C 233.16 60.25 235.93 61.92 236.14 67.21
  C 237.04 90.27 236.73 113.72 236.63 136.82
  Q 236.42 185.32 236.51 233.82
  C 236.52 237.38 236.30 240.96 236.14 244.52
  C 235.89 249.84 234.13 252.49 228.68 252.66
  Q 211.77 253.19 194.28 252.98
  A 1.85 1.85 0.0 0 0 192.41 254.87
  Z
  M 176.4627 32.9883
  A 0.69 0.69 0.0 0 0 175.7739 32.2971
  L 121.8140 32.2029
  A 0.69 0.69 0.0 0 0 121.1228 32.8917
  L 121.0773 58.9317
  A 0.69 0.69 0.0 0 0 121.7661 59.6229
  L 175.7260 59.7171
  A 0.69 0.69 0.0 0 0 176.4172 59.0283
  L 176.4627 32.9883
  Z
  M 104.46 76.29
  L 79.34 76.25
  Q 78.24 76.25 78.21 77.35
  L 77.75 96.29
  A 1.29 1.29 0.0 0 0 79.84 97.33
  L 104.81 77.28
  A 0.56 0.56 0.0 0 0 104.46 76.29
  Z
  M 167.04 76.61
  Q 151.46 75.89 136.73 76.33
  C 134.25 76.40 131.73 77.04 129.95 78.44
  Q 116.77 88.80 80.12 118.68
  C 79.28 119.36 77.97 121.17 77.98 122.01
  Q 78.12 129.87 77.76 137.83
  Q 77.73 138.55 78.39 138.27
  Q 79.91 137.63 81.95 136.21
  Q 118.04 111.03 154.14 85.87
  Q 160.84 81.20 167.26 77.53
  Q 168.73 76.69 167.04 76.61
  Z
  M 220.14 76.50
  C 212.50 76.59 200.07 74.26 193.54 78.81
  Q 139.83 116.27 86.09 153.70
  C 83.55 155.47 80.75 156.93 78.60 159.54
  Q 78.26 159.95 78.24 160.49
  L 77.71 173.81
  Q 77.68 174.57 78.43 174.45
  Q 80.27 174.15 82.26 172.77
  Q 145.88 128.68 209.34 84.35
  Q 214.61 80.67 220.33 77.17
  A 0.36 0.36 0.0 0 0 220.14 76.50
  Z
  M 79.66 195.14
  C 77.03 196.99 77.99 210.59 78.02 213.96
  A 0.46 0.46 0.0 0 0 78.74 214.34
  C 124.58 183.23 169.79 151.14 215.31 119.56
  Q 217.50 118.04 219.90 116.76
  A 1.34 1.33 75.8 0 0 220.61 115.56
  L 220.45 98.45
  A 0.42 0.41 -14.8 0 0 219.83 98.09
  Q 217.02 99.71 214.30 101.59
  Q 146.85 148.18 79.66 195.14
  Z
  M 78.73 235.57
  C 86.53 236.37 98.40 237.90 105.04 233.28
  Q 160.30 194.82 215.45 156.20
  Q 217.67 154.65 219.76 153.55
  A 1.97 1.97 0.0 0 0 220.81 151.76
  L 220.44 138.20
  Q 220.42 137.38 219.65 137.68
  Q 217.10 138.71 213.76 141.02
  Q 148.48 186.33 83.39 231.91
  C 81.96 232.92 80.08 233.91 78.57 234.98
  Q 77.86 235.49 78.73 235.57
  Z
  M 131.50 235.67
  Q 146.58 236.48 161.52 236.10
  C 163.12 236.06 166.34 235.57 167.28 234.79
  Q 193.50 213.08 220.31 192.08
  Q 220.66 191.80 220.66 191.35
  L 220.43 174.50
  A 0.36 0.36 0.0 0 0 219.88 174.19
  Q 211.30 179.40 203.14 185.12
  Q 169.11 209.00 135.02 232.78
  Q 132.98 234.21 131.37 234.93
  Q 129.91 235.59 131.50 235.67
  Z
  M 193.53 235.97
  L 219.99 236.01
  Q 220.50 236.01 220.50 235.51
  L 220.50 214.48
  Q 220.50 213.86 219.92 214.11
  Q 218.14 214.87 216.63 216.12
  Q 204.87 225.80 193.22 235.09
  A 0.49 0.49 0.0 0 0 193.53 235.97
  Z
  M 175.9647 254.0864
  A 0.96 0.96 0.0 0 0 175.0080 253.1231
  L 121.7284 252.9371
  A 0.96 0.96 0.0 0 0 120.7650 253.8937
  L 120.6953 273.8536
  A 0.96 0.96 0.0 0 0 121.6520 274.8169
  L 174.9316 275.0029
  A 0.96 0.96 0.0 0 0 175.8950 274.0463
  L 175.9647 254.0864
  Z"
/>
<rect fill="#ffffff" x="-27.67" y="-13.71" transform="translate(148.77,45.96) rotate(0.1)" width="55.34" height="27.42" rx="0.69"/>
<path fill="#ffffff" d="
  M 104.46 76.29
  A 0.56 0.56 0.0 0 1 104.81 77.28
  L 79.84 97.33
  A 1.29 1.29 0.0 0 1 77.75 96.29
  L 78.21 77.35
  Q 78.24 76.25 79.34 76.25
  L 104.46 76.29
  Z"
/>
<path fill="#ffffff" d="
  M 167.04 76.61
  Q 168.73 76.69 167.26 77.53
  Q 160.84 81.20 154.14 85.87
  Q 118.04 111.03 81.95 136.21
  Q 79.91 137.63 78.39 138.27
  Q 77.73 138.55 77.76 137.83
  Q 78.12 129.87 77.98 122.01
  C 77.97 121.17 79.28 119.36 80.12 118.68
  Q 116.77 88.80 129.95 78.44
  C 131.73 77.04 134.25 76.40 136.73 76.33
  Q 151.46 75.89 167.04 76.61
  Z"
/>
<path fill="#ffffff" d="
  M 193.54 78.81
  C 200.07 74.26 212.50 76.59 220.14 76.50
  A 0.36 0.36 0.0 0 1 220.33 77.17
  Q 214.61 80.67 209.34 84.35
  Q 145.88 128.68 82.26 172.77
  Q 80.27 174.15 78.43 174.45
  Q 77.68 174.57 77.71 173.81
  L 78.24 160.49
  Q 78.26 159.95 78.60 159.54
  C 80.75 156.93 83.55 155.47 86.09 153.70
  Q 139.83 116.27 193.54 78.81
  Z"
/>
<path fill="#ffffff" d="
  M 78.02 213.96
  C 77.99 210.59 77.03 196.99 79.66 195.14
  Q 146.85 148.18 214.30 101.59
  Q 217.02 99.71 219.83 98.09
  A 0.42 0.41 -14.8 0 1 220.45 98.45
  L 220.61 115.56
  A 1.34 1.33 75.8 0 1 219.90 116.76
  Q 217.50 118.04 215.31 119.56
  C 169.79 151.14 124.58 183.23 78.74 214.34
  A 0.46 0.46 0.0 0 1 78.02 213.96
  Z"
/>
<path fill="#ffffff" d="
  M 78.73 235.57
  Q 77.86 235.49 78.57 234.98
  C 80.08 233.91 81.96 232.92 83.39 231.91
  Q 148.48 186.33 213.76 141.02
  Q 217.10 138.71 219.65 137.68
  Q 220.42 137.38 220.44 138.20
  L 220.81 151.76
  A 1.97 1.97 0.0 0 1 219.76 153.55
  Q 217.67 154.65 215.45 156.20
  Q 160.30 194.82 105.04 233.28
  C 98.40 237.90 86.53 236.37 78.73 235.57
  Z"
/>
<path fill="#ffffff" d="
  M 131.50 235.67
  Q 129.91 235.59 131.37 234.93
  Q 132.98 234.21 135.02 232.78
  Q 169.11 209.00 203.14 185.12
  Q 211.30 179.40 219.88 174.19
  A 0.36 0.36 0.0 0 1 220.43 174.50
  L 220.66 191.35
  Q 220.66 191.80 220.31 192.08
  Q 193.50 213.08 167.28 234.79
  C 166.34 235.57 163.12 236.06 161.52 236.10
  Q 146.58 236.48 131.50 235.67
  Z"
/>
<path fill="#ffffff" d="
  M 193.53 235.97
  A 0.49 0.49 0.0 0 1 193.22 235.09
  Q 204.87 225.80 216.63 216.12
  Q 218.14 214.87 219.92 214.11
  Q 220.50 213.86 220.50 214.48
  L 220.50 235.51
  Q 220.50 236.01 219.99 236.01
  L 193.53 235.97
  Z"
/>
<rect fill="#ffffff" x="-27.60" y="-10.94" transform="translate(148.33,263.97) rotate(0.2)" width="55.20" height="21.88" rx="0.96"/>
</svg>
